<svg width="24" height="25" viewBox="0 0 24 25" fill="none" xmlns="http://www.w3.org/2000/svg">
<rect width="24" height="25" fill="#1E1E1E"/>
<g id="Discord 17">
<rect width="1920" height="928" transform="translate(-1783 -11.8877)" fill="#1E1F22"/>
<g id="Frame">
<rect width="1920" height="928" transform="translate(-1783 -11.8877)" fill="#1E1F22"/>
<g id="Auto Layout Horizontal">
<rect width="1920" height="928" transform="translate(-1783 -11.8877)" fill="#1E1F22"/>
<rect id="Rectangle" x="-1783" y="-11.8877" width="1920" height="928" fill="#1E1F22"/>
<g id="Auto Layout Horizontal_2">
<g id="Auto Layout Horizontal_3">
<g id="Auto Layout Vertical">
<rect width="1608" height="928" transform="translate(-1471 -11.8877)" fill="#313338"/>
<g id="Auto Layout Horizontal_4">
<rect width="1608" height="48" transform="translate(-1471 -11.8877)" fill="#313338"/>
<g id="Frame_2">
<g id="Frame_3">
<g id="Frame_4" clip-path="url(#clip0_0_1)">
<g id="Frame_5">
<path id="Vector" fill-rule="evenodd" clip-rule="evenodd" d="M20.998 0.112305V3.1123H23.998V5.1123H20.998V8.1123H18.998V5.1123H15.998V3.1123H18.998V0.112305H20.998ZM2.99805 20.1123V24.1123L8.33205 20.1123H14.998C16.102 20.1123 16.998 19.2153 16.998 18.1123V9.1123C16.998 8.0083 16.102 7.1123 14.998 7.1123H1.99805C0.894047 7.1123 -0.00195312 8.0083 -0.00195312 9.1123V18.1123C-0.00195312 19.2153 0.894047 20.1123 1.99805 20.1123H2.99805Z" fill="#B5BAC1"/>
</g>
</g>
</g>
</g>
</g>
</g>
</g>
</g>
</g>
</g>
</g>
<defs>
<clipPath id="clip0_0_1">
<rect width="24" height="24" fill="white" transform="translate(0 0.112305)"/>
</clipPath>
</defs>
</svg>
