<svg width="379" height="352" viewBox="0 0 379 352" fill="none" xmlns="http://www.w3.org/2000/svg">
<g clip-path="url(#clip0_1_222)">
<path d="M319.4 351.4C297.3 305.8 284.9 251.2 284.9 251.2L283.9 245.9L239.4 251.2V351.4H319.4Z" fill="#2835BD"/>
<path d="M309.8 351.4C290.4 311.4 279.6 263.5 279.6 263.5L277 250.1L239.7 263.5V351.4H309.8Z" fill="black"/>
<path d="M316.8 218H300.6V351.46H316.8V218Z" fill="#2835BD"/>
<path d="M316.8 235.3C314.374 236.405 311.683 236.794 309.044 236.422C306.404 236.05 303.926 234.932 301.9 233.2L300.6 232.1V226.1L316.8 223V235.3Z" fill="black"/>
<path d="M292 351.4C303.1 348.7 318.2 334 318.2 334C318.2 334 323.5 345.4 326.6 351.4H337.8C339.009 351.407 340.206 351.158 341.313 350.671C342.42 350.184 343.411 349.468 344.223 348.572C345.034 347.675 345.648 346.618 346.023 345.468C346.398 344.319 346.527 343.103 346.4 341.9C345.9 337 343.6 331.5 340.1 323.5C334.2 310.2 332.3 303.2 320.8 303.2H310.4L286.4 292.6C271 300.7 260.4 305.4 251.3 310.8C237.9 319 227.3 335.2 237.7 351.4H292Z" fill="#FFC619"/>
<path d="M123 263.5V351.4H244.8C264.2 311.4 275 263.5 275 263.5L277.9 251.2L123 263.5Z" fill="#2835BD"/>
<path d="M247.2 266.2L123 277.8V351.4H215.9C224.9 330.9 247.2 266.2 247.2 266.2Z" fill="black"/>
<path d="M230.7 344.7C240.945 328.858 249.08 311.747 254.9 293.8" stroke="black" stroke-width="2" stroke-linecap="round" stroke-linejoin="round"/>
<path d="M216.2 332.5C211.055 332.5 206.12 334.544 202.482 338.182C198.844 341.82 196.8 346.755 196.8 351.9H235.6C235.6 346.755 233.556 341.82 229.918 338.182C226.28 334.544 221.345 332.5 216.2 332.5Z" fill="#404EED"/>
<path d="M243.8 351.4C263.2 311.4 274.1 263.5 274.1 263.5L243.8 351.4Z" fill="#2835BD"/>
<path d="M281.3 351.3C281.2 351.1 274.3 333.7 270.7 322.5L270.5 321.8C268.1 314.2 266.1 308.1 266.4 302.7L264.7 303.6C264.7 309 266.6 315 269 322.3L269.2 323C272.5 333.2 278.4 348.5 279.6 351.4H281.3V351.3Z" fill="black"/>
<path d="M343.8 349C344.417 348.397 344.883 347.657 345.161 346.841C345.438 346.024 345.521 345.154 345.4 344.3C344.7 337.2 341 328.7 337.1 319.9L333.1 310.5L331.6 311.1C332.9 314.3 334.3 317.4 335.6 320.5C340.3 331.2 344.8 341.5 343.8 349Z" fill="white"/>
<path d="M310.4 322.9C308.5 330.7 305.8 340.4 302.3 351.4H281.3C281.3 351.4 274.5 333.9 270.8 322.6C267.1 311.3 264.4 303.2 268.1 295.7C271.8 288.2 277.6 287.6 286.4 292.6L285.1 306.8L291.8 325.8L294.9 315.7C301.5 311.4 309.8 313.8 310.4 322.9Z" fill="#FFC619"/>
<path d="M283.3 345.1L281.6 340.2C277.9 329.3 274.7 320 272.5 311.5C270.7 304.5 269.2 296.2 270.1 292.5C269.365 293.396 268.728 294.368 268.2 295.4C268.2 300.8 270 308.3 270.9 311.9C273.2 320.5 276.4 329.8 280.1 340.7L281.8 345.7C282.533 347.767 283.233 349.667 283.9 351.4H285.7C284.9 349.6 284.2 347.6 283.3 345.1Z" fill="white"/>
<path d="M298.5 351.4C300.8 343.7 304.1 332.4 308.4 317.8C308.43 317.695 308.438 317.585 308.423 317.477C308.409 317.368 308.373 317.264 308.316 317.17C308.26 317.077 308.185 316.995 308.096 316.932C308.008 316.868 307.907 316.823 307.8 316.8C307.703 316.752 307.596 316.727 307.488 316.727C307.379 316.727 307.272 316.752 307.175 316.801C307.078 316.849 306.994 316.92 306.929 317.006C306.864 317.093 306.82 317.194 306.8 317.3C302.4 332.2 299.1 343.7 296.8 351.4H298.5Z" fill="white"/>
<path d="M306.6 261.4C294 259.6 289.2 260.5 284.5 271.1C279.8 281.7 282.2 290.7 290 302.1C297.8 313.5 317 311.4 324.3 308.7C331.6 306 338 298.7 341.6 288.4C345.2 278.1 344.1 266.8 338.7 260.6C333.3 254.4 324.2 249.3 316 251.9C307.8 254.5 306.6 261.4 306.6 261.4Z" fill="#DE3A93"/>
<path d="M312.7 276.3L308.9 275.3" stroke="black" stroke-width="2" stroke-linecap="round" stroke-linejoin="round"/>
<path d="M312.9 277.9L309 278.4" stroke="black" stroke-width="2" stroke-linecap="round" stroke-linejoin="round"/>
<path d="M340.5 276L343.5 274" stroke="black" stroke-width="2" stroke-linecap="round" stroke-linejoin="round"/>
<path d="M340.3 277.7L343.4 277.2" stroke="black" stroke-width="2" stroke-linecap="round" stroke-linejoin="round"/>
<path d="M302.5 251.2C300.4 251.2 298.8 252.6 298.7 253.6C298.6 254.6 302.4 257.8 307.3 263.9L308.6 263.4C304 251.6 304.6 251.1 302.5 251.2Z" fill="black"/>
<path d="M312.2 260.5C308.4 262.9 304 266.2 304 266.2" stroke="black" stroke-width="2" stroke-linecap="round" stroke-linejoin="round"/>
<path d="M310.4 322.9C311.6 317.8 312.5 313.5 313 310.2C314.4 301.6 311.8 300.2 308 299.1C304.2 298 301.5 295.9 299.7 289.4C297.9 282.9 296.8 283 294.6 284.1C292.2 285.399 290.143 287.25 288.6 289.5C287.4 291.6 287.6 294 289.9 299.9C291.422 303.59 293.867 306.827 297 309.3L294.9 315.7C302.6 315.4 307.2 316.4 310.4 322.9Z" fill="#FF78B9"/>
<path d="M322.9 318.9C321.8 314 320.4 308.7 322.9 307.3C325.4 305.9 333.1 302.3 337.3 293.2C337.388 292.974 337.52 292.767 337.69 292.593C337.859 292.419 338.062 292.281 338.287 292.188C338.511 292.094 338.752 292.047 338.995 292.049C339.237 292.052 339.477 292.103 339.7 292.2H339.9C340.082 292.266 340.249 292.368 340.39 292.502C340.531 292.635 340.642 292.796 340.717 292.974C340.792 293.153 340.83 293.345 340.827 293.539C340.824 293.733 340.781 293.924 340.7 294.1C338.654 298.45 336.211 302.601 333.4 306.5C333.983 308.845 334.718 311.15 335.6 313.4C331 315.7 322.9 318.9 322.9 318.9Z" fill="#FF78B9"/>
<path d="M298.3 302.9C298.448 302.735 298.529 302.522 298.529 302.3C298.529 302.079 298.448 301.865 298.3 301.7C296.805 300.133 295.466 298.425 294.3 296.6C292.4 293.3 290.6 287.4 291.9 285.9L290.5 287.2C290.278 287.44 290.109 287.725 290.006 288.035C289.902 288.346 289.866 288.675 289.9 289C290.429 291.947 291.443 294.785 292.9 297.4C294.109 299.372 295.517 301.214 297.1 302.9L297.7 303.1L298.3 302.9Z" fill="black"/>
<path d="M297.8 309.5C300.685 309.144 303.594 309.011 306.5 309.1" stroke="black" stroke-width="2" stroke-linecap="round" stroke-linejoin="round"/>
<path d="M288.3 336.7L294.6 316.7" stroke="black" stroke-width="2" stroke-linecap="round" stroke-linejoin="round"/>
<path d="M291.8 325.8L285.7 308.3" stroke="black" stroke-width="2" stroke-linecap="round" stroke-linejoin="round"/>
<path d="M323 319.7C324.8 329.4 328.7 343 328.7 343" stroke="black" stroke-width="2" stroke-linecap="round" stroke-linejoin="round"/>
<path d="M241.9 326C238.426 326 235.094 327.38 232.637 329.837C230.18 332.294 228.8 335.626 228.8 339.1V351.9H254.9V339.1C254.9 335.643 253.534 332.326 251.099 329.872C248.663 327.418 245.357 326.027 241.9 326Z" fill="#404EED"/>
<path d="M254.9 339.1C253.211 339.087 251.535 339.408 249.971 340.046C248.406 340.683 246.984 341.624 245.784 342.814C244.585 344.004 243.633 345.419 242.984 346.979C242.334 348.538 242 350.211 242 351.9H267.7C267.7 348.505 266.351 345.25 263.951 342.849C261.551 340.449 258.295 339.1 254.9 339.1Z" fill="#404EED"/>
<path d="M295 227.5L314.7 224.4" stroke="black" stroke-width="8" stroke-linecap="round" stroke-linejoin="round"/>
<path d="M336.2 264.1L336.9 265.2" stroke="#FFA8D2" stroke-width="3" stroke-linecap="round" stroke-linejoin="round"/>
<path d="M326.3 256.8C328.889 257.576 331.278 258.907 333.3 260.7" stroke="#FFA8D2" stroke-width="3" stroke-linecap="round" stroke-linejoin="round"/>
<path d="M314.2 224.5C330.9 221.7 357.7 215.5 371.6 211.8" stroke="#2835BD" stroke-width="8" stroke-linecap="round" stroke-linejoin="round"/>
<path d="M366.6 214.5L371.9 239.1" stroke="black" stroke-width="2" stroke-linecap="round" stroke-linejoin="round"/>
<path d="M376.9 238.3V235.1H356.3V238.4C356.258 238.857 356.122 239.299 355.9 239.7C354.868 241.202 354.311 242.978 354.3 244.8V257.9C354.302 260.114 355.102 262.252 356.553 263.924C358.004 265.595 360.009 266.687 362.2 267C365.153 267.4 368.147 267.4 371.1 267C373.264 266.663 375.233 265.558 376.647 263.886C378.062 262.215 378.826 260.09 378.8 257.9V244.8C378.825 242.988 378.302 241.21 377.3 239.7C377.019 239.289 376.878 238.798 376.9 238.3Z" fill="#8CD9FF"/>
<path d="M375 239.7V235.6H358.1V239.7C358.105 240.506 357.898 241.299 357.5 242C356.702 243.18 356.284 244.576 356.3 246V257.2C356.302 259.06 356.968 260.857 358.178 262.269C359.388 263.681 361.063 264.614 362.9 264.9C365.291 265.2 367.709 265.2 370.1 264.9C371.964 264.656 373.675 263.738 374.909 262.32C376.143 260.901 376.816 259.08 376.8 257.2V246C376.791 244.593 376.412 243.214 375.7 242C375.275 241.305 375.034 240.514 375 239.7Z" fill="#5865F2"/>
<path d="M356.3 236.7C356.3 238.1 360.9 239.2 366.6 239.2C372.3 239.2 376.9 238.1 376.9 236.7L366.6 232.6L356.3 236.7Z" fill="#8CD9FF"/>
<path d="M355.7 235.9C355.612 236.05 355.555 236.217 355.532 236.39C355.51 236.563 355.522 236.738 355.569 236.906C355.615 237.074 355.695 237.231 355.804 237.367C355.912 237.504 356.047 237.617 356.2 237.7C357.9 238.7 361.9 239.4 366.6 239.4C371.3 239.4 375.3 238.7 377 237.7C377.29 237.514 377.502 237.228 377.594 236.896C377.686 236.564 377.653 236.209 377.5 235.9L366.6 214.5L355.7 235.9Z" stroke="black" stroke-width="2" stroke-linecap="round" stroke-linejoin="round"/>
<path d="M365.6 258L362.5 257.3C362.201 257.192 361.952 256.979 361.8 256.7C361.658 256.421 361.631 256.097 361.724 255.798C361.818 255.499 362.024 255.249 362.3 255.1C362.45 255.012 362.617 254.955 362.79 254.932C362.962 254.91 363.138 254.922 363.306 254.969C363.474 255.015 363.631 255.095 363.767 255.204C363.903 255.312 364.017 255.447 364.1 255.6L365.6 258Z" fill="white"/>
<path d="M365.6 258L365.4 254.9C365.394 254.753 365.418 254.607 365.469 254.47C365.521 254.332 365.599 254.207 365.7 254.1C365.785 253.97 365.9 253.861 366.034 253.783C366.169 253.704 366.32 253.659 366.475 253.649C366.63 253.639 366.786 253.666 366.929 253.727C367.072 253.788 367.199 253.881 367.3 254C367.561 254.215 367.728 254.523 367.765 254.86C367.802 255.196 367.707 255.533 367.5 255.8L365.6 258Z" fill="white"/>
<path d="M366.2 260.9C364.5 261.4 362.9 260.9 362.5 259.8C362.1 258.7 362.7 258.1 364.3 257.7C364.998 257.52 365.67 257.251 366.3 256.9C367.6 256.2 368.3 257 368.6 257.9C368.9 258.8 367.9 260.3 366.2 260.9Z" fill="#121B80"/>
<path d="M363.136 257.878L361.936 257.857C361.108 257.843 360.424 258.502 360.41 259.331L360.408 259.421C360.394 260.249 361.054 260.932 361.882 260.947L363.082 260.968C363.91 260.982 364.593 260.322 364.608 259.494L364.609 259.404C364.624 258.576 363.964 257.893 363.136 257.878Z" fill="#FFE75C"/>
<path d="M368.8 246.2L371.6 244.7C371.821 244.511 371.992 244.27 372.1 244C372.146 243.849 372.162 243.69 372.147 243.533C372.132 243.376 372.086 243.223 372.011 243.084C371.937 242.945 371.836 242.821 371.714 242.721C371.592 242.621 371.451 242.546 371.3 242.5C370.968 242.408 370.614 242.451 370.314 242.619C370.014 242.788 369.793 243.069 369.7 243.4L368.8 246.2Z" fill="white"/>
<path d="M368.799 246.2L368.299 243.1C368.192 242.8 368.022 242.527 367.799 242.3C367.523 242.153 367.206 242.103 366.898 242.157C366.59 242.211 366.308 242.367 366.099 242.6C365.907 242.907 365.842 243.276 365.916 243.631C365.991 243.985 366.201 244.297 366.5 244.5L368.799 246.2Z" fill="white"/>
<path d="M369.6 245.8C371 246.8 371.7 248.4 371 249.3C370.3 250.2 369.5 250.3 368.2 249.2C367.653 248.754 367.047 248.384 366.4 248.1C366.153 248.039 365.928 247.912 365.747 247.732C365.567 247.553 365.44 247.327 365.378 247.081C365.316 246.834 365.323 246.575 365.397 246.332C365.472 246.089 365.611 245.87 365.8 245.7C366.4 244.7 368.2 244.8 369.6 245.8Z" fill="#121B80"/>
<path d="M368.905 249.398L369.612 250.368C370.1 251.037 371.038 251.184 371.708 250.696L371.78 250.643C372.45 250.155 372.597 249.216 372.109 248.547L371.402 247.577C370.913 246.908 369.975 246.761 369.306 247.249L369.233 247.302C368.564 247.79 368.417 248.729 368.905 249.398Z" fill="#FFE75C"/>
<path d="M366.6 237.6C372.289 237.6 376.9 236.481 376.9 235.1C376.9 233.719 372.289 232.6 366.6 232.6C360.911 232.6 356.3 233.719 356.3 235.1C356.3 236.481 360.911 237.6 366.6 237.6Z" fill="#8CD9FF"/>
<path d="M377 235.1H356.3V236.52H377V235.1Z" fill="#8CD9FF"/>
<path d="M370.8 235.9C370.3 236 369.9 236.3 369.9 236.8C369.912 236.906 369.946 237.007 369.998 237.1C370.05 237.192 370.12 237.273 370.203 237.339C370.287 237.404 370.383 237.452 370.485 237.479C370.588 237.507 370.695 237.514 370.8 237.5L372.5 237.2C372.725 237.162 372.932 237.055 373.093 236.894C373.255 236.732 373.362 236.525 373.4 236.3C373.39 236.197 373.357 236.098 373.303 236.009C373.25 235.921 373.178 235.845 373.092 235.787C373.006 235.73 372.908 235.693 372.806 235.677C372.703 235.662 372.599 235.67 372.5 235.7L370.8 235.9Z" fill="white"/>
<path d="M366.6 214.5L361.3 239.1" stroke="black" stroke-width="2" stroke-linecap="round" stroke-linejoin="round"/>
<path d="M367.4 216.2L364.8 210.6" stroke="black" stroke-width="2" stroke-linecap="round" stroke-linejoin="round"/>
<path d="M366.8 216.5L367.1 210.1" stroke="black" stroke-width="2" stroke-linecap="round" stroke-linejoin="round"/>
<path d="M338.7 281.4C342 277.6 341.5 275.3 340.4 274.6C339.3 273.9 337.6 275.2 334.6 280C331.6 284.8 334.1 286.6 338.7 281.4Z" fill="white"/>
<path d="M323 281.4C320.8 276.8 317 273.5 313.5 274C310 274.5 311.4 279.7 316 283.2C320.6 286.7 325.4 286.4 323 281.4Z" fill="white"/>
<path d="M340.2 277.2C340.394 276.3 340.324 275.362 340 274.5C339.1 274.4 337.7 275.4 335.8 278.1C336 279.5 336.7 280.5 337.5 280.6C338.3 280.7 340 279.3 340.2 277.2Z" fill="black"/>
<path d="M323.1 281.7C323.1 281.6 323 281.5 323 281.4C321.933 279.083 320.32 277.058 318.3 275.5C317.723 276.643 317.48 277.925 317.6 279.2C317.8 281.9 319.2 284 320.8 283.9C321.367 283.824 321.895 283.57 322.309 283.175C322.722 282.78 322.999 282.263 323.1 281.7Z" fill="black"/>
<path d="M325 291.7C331.3 290.1 333.8 289.4 334.8 290.8C335.8 292.2 334.9 293.8 333.4 295.4C335 298.9 334.5 300.5 331.4 300.5C329.14 300.339 326.949 299.654 325 298.5" stroke="black" stroke-width="2" stroke-linecap="round" stroke-linejoin="round"/>
<path d="M331.7 293.7C331.308 294.738 330.769 295.715 330.1 296.6" stroke="black" stroke-width="2" stroke-linecap="round" stroke-linejoin="round"/>
<path d="M34.7 351.4H-21C-56.8 351.4 -77.4 341.1 -92.8 329.4L-96.4 351.4H-105.5C-105.5 245.8 -91.9 145.6 -91.9 145.6C-89.9 134.3 -68.4 129.2 -41.7 138.5C-15 147.8 -7.89999 159.7 -8.89999 170.5C-9.89999 181.3 -18.4 254.1 -21.6 288.2L-15.9 294.4C-13.934 296.443 -12.476 298.919 -11.642 301.628C-10.808 304.338 -10.622 307.205 -11.1 310L-11.7 313.3C10.3 327.5 44.3 320.4 34.7 351.4Z" fill="#29CC7A"/>
<path d="M-92.8 329.4C-77.4 341.1 -56.8 351.4 -21 351.4H34.7C35.648 348.523 36.187 345.527 36.3 342.5C-22.8 342.5 -57.1 341.3 -104.7 305.7C-105.1 319.9 -105.4 335.2 -105.5 351.4H-96.4L-92.8 329.4Z" fill="#57F287"/>
<path d="M35.8 337.4C24.7 337.5 6.2 337.3 -12 336.1C-45.8 333.8 -76.9 321.2 -104.5 298.7V300.5C-76.9 322.8 -45.9 335.3 -12.1 337.5C4.89999 338.7 22.1 338.9 33.4 338.9H36.1L35.8 337.4Z" fill="black"/>
<path d="M71.3996 192.3L38.0996 210.9C38.6696 211.427 39.3866 211.767 40.1556 211.875C40.9246 211.982 41.7076 211.851 42.3996 211.5C44.2996 210.7 48.8996 206.5 50.6996 205.5C52.4996 204.5 57.5996 202.5 60.0996 201.5C63.1826 200.279 66.0776 198.629 68.6996 196.6C70.8996 194.8 71.6996 194.1 71.3996 192.3Z" fill="black"/>
<path d="M39.4002 182.3C39.7002 171.5 30.8002 169.8 24.7002 166C18.6002 162.2 11.4002 154.2 3.90018 148.8C-3.59982 143.4 -10.0998 143.5 -22.7998 147.4L-8.2998 175.6C-0.0998039 179.8 1.70019 184.4 6.10019 190.6C10.5002 196.8 16.4002 199.2 22.3002 198.1C25.4002 203.2 26.0002 204.4 30.5002 202.8C35.0002 201.2 42.4002 197.8 44.4002 191.9C46.4002 186 43.5002 185 39.4002 182.3Z" fill="#66BCFF"/>
<path d="M31.9004 199.4C28.1004 198.5 26.6004 196.4 24.2004 193.1L22.1004 190.3C11.8004 188.2 7.60042 182.7 5.30042 178.7C4.20042 176.8 2.20042 175.3 0.300417 173.9C-1.59958 172.5 -3.49958 171 -4.59958 169.2C-5.42758 167.852 -6.16256 166.449 -6.79956 165C-7.59956 162.9 -8.29958 161.5 -9.59958 161.1C-10.8996 160.7 -13.0996 161.5 -15.1996 162.4C-17.1066 163.319 -19.1226 163.991 -21.1996 164.4C-21.3716 164.432 -21.5486 164.398 -21.6966 164.305C-21.8446 164.213 -21.9526 164.068 -21.9996 163.9C-22.0056 163.719 -21.9486 163.54 -21.8396 163.395C-21.7306 163.249 -21.5756 163.146 -21.3996 163.1C-19.4426 162.771 -17.5526 162.13 -15.7996 161.2C-13.3996 160.2 -11.3996 159.3 -9.29956 159.9C-7.19956 160.5 -6.49958 162.3 -5.59958 164.5C-4.69958 166.7 -4.39958 167.1 -3.59958 168.5C-2.27658 170.179 -0.688564 171.631 1.10044 172.8C3.10044 174.4 5.20042 176 6.40042 178.1C8.70042 182.2 12.7004 187.1 22.6004 189.1H22.8004L23.0004 189.3C23.9004 190.4 24.6004 191.5 25.3004 192.4C27.5004 195.5 28.9004 197.4 32.1004 198.2C32.1874 198.193 32.2734 198.208 32.3524 198.244C32.4314 198.281 32.4994 198.337 32.5494 198.408C32.6004 198.478 32.6314 198.561 32.6404 198.647C32.6494 198.734 32.6354 198.821 32.6004 198.9C32.6074 198.987 32.5924 199.074 32.5564 199.152C32.5194 199.231 32.4634 199.299 32.3934 199.35C32.3224 199.4 32.2394 199.431 32.1534 199.44C32.0674 199.449 31.9804 199.435 31.9004 199.4Z" fill="#45AAF7"/>
<path d="M71.3996 192.2C70.8506 193.002 70.2136 193.74 69.4996 194.4C66.2996 197.6 58.9996 201.2 55.0996 202.7C52.1326 203.639 49.4036 205.208 47.0996 207.3C44.1996 209.6 40.5996 212.7 38.0996 210.9C34.9506 208.001 32.0726 204.821 29.4996 201.4C29.3536 201.221 29.2586 201.006 29.2236 200.777C29.1876 200.549 29.2145 200.315 29.2995 200.1C30.6995 196.1 35.1996 190.4 41.6996 187.4C41.9146 187.315 42.1486 187.288 42.3766 187.324C42.6056 187.359 42.8206 187.454 42.9996 187.6C46.7996 190.3 49.0996 191 52.1996 190.9C55.2996 190.8 61.2996 188.8 66.1996 187.4C71.0996 186 71.1996 188.2 71.3996 192.2Z" fill="#FFC619"/>
<path d="M32.2998 204.9C34.0858 207.038 36.0238 209.043 38.0998 210.9C40.5998 212.7 44.1998 209.6 47.0998 207.3C49.4038 205.208 52.1328 203.639 55.0998 202.7C58.9998 201.2 66.2998 197.6 69.4998 194.4C70.2138 193.74 70.8508 193.002 71.3998 192.2C71.1998 188.2 70.2998 186.2 66.1998 187.4C62.0998 188.6 59.7998 189.6 56.7998 190.3C55.9078 190.539 55.0988 191.021 54.4628 191.691C53.8278 192.362 53.3898 193.196 53.1998 194.1C53.0998 195.2 52.8998 196.3 52.6998 197.6C47.2998 196.5 42.0998 198.3 40.9998 205.4C40.9998 205.4 36.3998 202.9 32.2998 204.9Z" fill="#FFE75C"/>
<path d="M69.5 194.4L71.4 192.3C71.527 192.089 71.596 191.847 71.6 191.6C71.508 190.842 71.305 190.101 71 189.4C70.2 190.9 68.8 192.4 65.7 194.7C60.8 198.3 55.3 199.6 52 200.7C48.979 201.826 46.222 203.562 43.9 205.8C42.075 207.862 39.67 209.325 37 210L38.1 210.9C40.6 212.7 44.2 209.6 47.1 207.3C49.404 205.208 52.133 203.639 55.1 202.7C59 201.2 66.3 197.6 69.5 194.4Z" fill="white"/>
<path d="M8.49969 198.9C3.39969 197.5 -1.8003 199.9 -6.4003 208.6C-7.7003 207.6 -10.9003 206.5 -15.7003 207.4C-20.5003 208.3 -22.3003 210.4 -23.1003 212C-23.5763 212.924 -23.7173 213.984 -23.5003 215C-23.2003 216.3 -22.8003 218 -22.2003 220.8C-21.3003 225.1 -21.8003 228.9 -19.4003 229.3L14.1997 205.1C14.1997 205.1 15.0997 200.7 8.49969 198.9Z" fill="#FFC619"/>
<path d="M8.4996 198.9C3.3996 197.5 -1.80039 199.9 -6.40039 208.6C-7.03839 209.902 -7.6064 211.237 -8.1004 212.6C-13.4004 212.1 -15.9004 214.4 -16.8004 219.5C-16.8004 219.5 -20.3004 217.1 -22.4004 219.9C-22.3004 220.2 -22.3004 220.5 -22.2004 220.8C-21.3004 225.1 -21.8004 228.9 -19.4004 229.3L14.1996 205.1C14.1996 205.1 15.0996 200.7 8.4996 198.9Z" fill="#FFE75C"/>
<path d="M14.1997 203.7L11.6997 201.4C7.39968 200.7 3.79967 200.6 -0.000333786 204.9C-3.80033 209.2 -6.30032 213.9 -10.3003 216.7C-16.0003 220.9 -20.8003 222.6 -21.5003 225.7C-22.2003 228.8 -20.8003 229.1 -19.4003 229.3L14.1997 205.1C14.3227 204.642 14.3227 204.159 14.1997 203.7Z" fill="white"/>
<path d="M9.8996 199.9L12.2996 200.6C12.5086 200.634 12.7066 200.714 12.8796 200.835C13.0536 200.957 13.1966 201.116 13.2996 201.3C14.2266 202.866 14.6126 204.693 14.3996 206.5L5.59961 204.9C8.49961 203.5 9.49962 202.2 9.19962 200.5C9.16962 200.406 9.16761 200.306 9.19461 200.211C9.22161 200.116 9.27562 200.032 9.35062 199.968C9.42562 199.903 9.51759 199.863 9.61459 199.851C9.71259 199.839 9.8116 199.856 9.8996 199.9Z" fill="white"/>
<path d="M-19.2004 229.4C-10.6004 231.1 -6.80042 228.4 -3.10042 224.6C-1.56542 222.902 0.221598 221.452 2.1996 220.3C7.2996 217.4 11.2996 214.3 13.9996 209.4C16.6996 204.5 8.39959 201.3 2.99959 205.8C-2.40041 210.3 -2.70041 215.6 -13.4004 222.2C-20.7004 226.8 -21.7004 228.9 -19.2004 229.4Z" fill="black"/>
<path d="M71.7002 191C71.5242 189.986 71.1872 189.007 70.7002 188.1C70.6002 188 70.5002 187.9 70.4002 188H70.3002C70.1002 188 70.1002 188.1 70.1002 188.2C70.6002 190.3 70.8002 192.7 69.7002 194.1C72.0002 192.3 71.8002 191.3 71.7002 191Z" fill="white"/>
<path d="M36.0237 201.633C36.9407 201.428 37.4297 200.126 37.1157 198.724C36.8027 197.323 35.8057 196.353 34.8897 196.558C33.9737 196.763 33.4847 198.065 33.7977 199.466C34.1107 200.867 35.1077 201.837 36.0237 201.633Z" fill="white"/>
<path d="M110.999 351.4C153.299 351.4 187.999 333.8 233.599 293.6C279.199 253.4 295.199 240.2 308.099 227.7C320.999 215.2 320.099 207.1 313.399 191.1C306.699 175.1 302.299 177.4 302.299 177.4C301.499 164.4 288.799 142.9 274.799 125.6C260.799 108.3 252.399 111.1 236.999 111.1C221.599 111.1 216.499 115.3 209.599 133.7C202.699 152.1 185.499 167.7 152.999 173.4C120.499 179.1 102.699 178.8 101.799 195.1C100.899 211.4 101.799 239.5 87.3991 261.7C69.4981 270.352 50.6792 276.96 31.2992 281.4C19.8992 284 17.4991 291.5 16.3991 301.3C15.2991 311.1 19.2991 316.4 21.1991 319.5C17.2991 323.2 18.0991 324.8 19.9991 333.5C20.7991 337 21.6991 340.5 22.4991 343.6C23.1511 345.853 24.5182 347.833 26.3942 349.24C28.2702 350.647 30.5541 351.405 32.8991 351.4H110.999Z" fill="#66BCFF"/>
<path d="M16.3991 301.3C15.2991 311.1 19.2991 316.4 21.1991 319.5L99.4991 328.5L175.299 317.4C175.299 317.4 225.299 277.1 218.499 263.7C211.699 250.3 197.399 262.9 178.299 275.9C159.199 288.9 139.399 290.1 116.699 286.8C93.9991 283.5 66.4992 273.8 31.2992 281.4C19.8992 284 17.4991 291.5 16.3991 301.3Z" fill="#45AAF7"/>
<path d="M226.599 257C226.699 239.7 226.099 235.6 231.899 236.4C237.699 237.2 247.199 239.1 247.199 239.1L236.899 255.4L226.599 257Z" fill="#A3E1FF"/>
<path d="M256.999 230.1C256.999 221.7 256.299 216.2 258.599 215C260.899 213.8 263.599 215.3 268.399 219.6C273.199 223.9 256.999 230.1 256.999 230.1Z" fill="#A3E1FF"/>
<path d="M26.1985 317.4C24.8985 307.3 25.1985 299.3 27.8985 297.3C30.5985 295.3 33.1985 299.9 35.0985 303.9C37.5205 308.976 40.5425 313.743 44.0985 318.1L26.1985 317.4Z" fill="#A3E1FF"/>
<path d="M112.999 319.6C116.299 306.1 119.099 302.8 121.899 302.6C124.699 302.4 126.099 308.8 130.099 317.9L123.499 321L112.999 319.6Z" fill="#A3E1FF"/>
<path d="M293 196.1C250.5 237.2 225.099 259.8 189.499 286.3C153.899 312.8 137.999 319.7 108.099 319.7C78.1995 319.7 58.9995 302.9 21.1995 319.5C17.2995 323.2 18.0995 324.8 19.9995 333.5C20.7995 337 21.6995 340.5 22.4995 343.6C23.1515 345.853 24.5185 347.833 26.3945 349.24C28.2705 350.647 30.5545 351.405 32.8995 351.4H110.999C153.299 351.4 187.999 333.8 233.599 293.6C279.199 253.4 295.199 240.2 308.099 227.7C320.999 215.2 320.099 207.1 313.399 191.1C306.699 175.1 302.299 177.4 302.299 177.4C302.299 181.9 302.6 186.7 293 196.1Z" fill="white"/>
<path d="M313.899 192.2C313.799 198 310.199 204.6 300.399 213.6C281.199 231.1 241.499 266.9 214.199 290.1C184.299 315.8 156.499 337 119.499 337C106.599 337 92.4992 334.3 78.7992 331.7C54.6992 327.1 31.7992 322.8 20.1992 334.4C20.2992 335 20.4992 335.7 20.5992 336.3C31.3992 324.4 54.2992 328.7 78.4992 333.3C92.2992 335.9 106.499 338.6 119.499 338.6C156.999 338.6 186.199 316.2 215.199 291.4C242.499 268.1 282.299 232.2 301.399 214.8C308.599 208.2 313.799 202.1 315.099 195.4L313.899 192.2Z" fill="#FFE75C"/>
<path d="M201.999 319L188.099 287.4C182.766 291.333 177.866 294.833 173.399 297.9L172.199 299.3C177.399 297.1 182.599 300 182.999 308.9C183.099 313.7 183.099 323.4 183.099 331.2C189.616 327.479 195.925 323.407 201.999 319Z" fill="black"/>
<path d="M38.6986 343.4C30.6986 343.5 26.7986 346.7 29.9986 349.8C31.1636 350.882 32.7096 351.457 34.2986 351.4H102.999C68.7986 351.4 65.2986 343 38.6986 343.4Z" fill="black"/>
<path d="M274.299 166.9C263.999 180.1 260.399 185.3 264.699 199.4C266.499 205.5 268.799 212 270.699 217.4L292.999 196.1C302.599 186.7 302.299 181.9 302.299 177.4C301.599 166.3 292.299 149 280.799 133.4C286.599 141.8 284.599 153.7 274.299 166.9Z" fill="#45AAF7"/>
<path d="M260.599 150.1C266.499 127.6 265.899 112.6 251.399 111.1C247.099 110.7 242.499 111.1 236.999 111.1C221.499 111.1 216.499 115.3 209.599 133.7C202.699 152.1 185.499 167.7 152.999 173.4C120.499 179.1 102.699 178.8 101.799 195.1C100.899 211.4 101.799 239.5 87.3994 261.7C85.2994 265.4 87.7994 267.9 117.699 267.9C147.599 267.9 165.399 266.1 170.399 253.6C175.399 241.1 182.599 213.8 186.199 203C189.799 192.2 189.199 186 209.099 181.5C228.999 177 254.999 171.8 260.599 150.1Z" fill="#8CD9FF"/>
<path d="M191.499 178.7C207.499 172.1 218.799 173.6 235.799 165.5C252.799 157.4 254.999 151.4 257.099 140.3C259.199 129.2 260.699 116.1 250.399 115.2C240.099 114.3 230.799 114.7 226.099 116.3C221.399 117.9 220.199 120.8 215.099 131.3C209.999 141.8 207.499 157.4 184.599 167.6L191.499 178.7Z" fill="black"/>
<path d="M56.6992 312.4C56.7992 317.5 58.1992 324.8 60.9992 325.5C63.7992 326.2 65.0992 320.5 67.9992 313.4C64.8992 310.2 56.6992 306.9 56.6992 312.4Z" fill="#A3E1FF"/>
<path d="M184.299 289.2C181.821 289.302 179.397 289.951 177.199 291.1C167.899 295.8 167.999 299.8 168.299 301.2C180.999 293.5 186.599 302 190.199 326.9C191.599 336.7 194.099 341.5 201.299 341.5C210.099 341.5 215.299 335.3 214.699 319.3C214.564 316.281 214.23 313.275 213.699 310.3C211.199 296.9 205.999 283.4 193.399 283.4C191.509 283.494 189.677 284.078 188.081 285.095C186.485 286.112 185.182 287.527 184.299 289.2Z" fill="#FF78B9"/>
<path d="M278.199 244.1C272.799 248.9 267.399 249.3 266.199 245.1C264.999 240.9 268.299 233.5 273.699 228.8L283.099 220.5C288.499 215.7 293.899 215.3 295.099 219.5C296.299 223.7 292.899 231.1 287.599 235.8L278.199 244.1Z" fill="#FFA8D2"/>
<path d="M184.299 289.2C192.699 290.1 199.099 294 201.799 304.6C203.699 312.1 203.099 320.9 204.399 328.5" stroke="black" stroke-width="2" stroke-linecap="round" stroke-linejoin="round"/>
<path d="M279.999 169.2L277.499 172.6C269.599 182.9 266.699 186.7 275.099 213.2L276.399 212C268.499 187 271.099 183.5 278.699 173.6L281.299 170.2C287.499 161.8 289.799 153.5 289.599 146.4L287.799 143.6C288.799 150.9 286.799 160 279.999 169.2Z" fill="#5865F2"/>
<path d="M166.099 307.6C166.899 303.1 165.899 300.9 163.599 301.2C161.299 301.5 159.299 302.9 157.099 308C158.899 327.5 164.099 319.9 166.099 307.6Z" fill="#A3E1FF"/>
<path d="M248.301 118.4L264.001 116.4C266.501 116.1 267.401 110.4 268.501 103.2C269.601 95.9999 268.301 82.8999 268.301 82.8999L252.101 87.7999L248.301 118.4Z" fill="#FF78B9"/>
<path d="M291.901 78.2001C285.201 70.7001 251.201 44.5001 251.201 44.5001L243.201 56.0001C243.201 56.0001 254.501 68.5001 262.601 76.9001C246.201 78.2001 216.601 82.1001 216.601 82.1001C195.601 77.9001 186.701 75.9001 186.701 75.9001L208.301 55.4001L200.401 43.6001C200.401 43.6001 179.801 56.2001 168.201 65.3001C156.601 74.4001 154.701 85.6001 165.701 94.1001C176.701 102.6 180.401 105.2 180.401 105.2L251.301 112.5C272.101 106.7 284.501 100.4 292.001 93.9001C299.501 87.4001 298.601 85.7001 291.901 78.2001Z" fill="#FFC619"/>
<path d="M174.501 74.7998C177.001 75.1998 181.401 76.3999 181.401 76.3999" stroke="black" stroke-width="2" stroke-linecap="round" stroke-linejoin="round"/>
<path d="M246.901 40.8999L239.801 52.7999L247.801 61C250.401 58.1 253.001 52.9999 252.201 45.2999L246.901 40.8999Z" fill="black"/>
<path d="M200.901 92.9002C191.301 81.1002 187.901 76.0002 185.901 70.1002C184.501 65.8002 193.001 68.4002 204.001 71.7002C215.001 75.0002 213.301 78.1002 200.901 92.9002Z" fill="#FF78B9"/>
<path d="M187.101 75.6001C177.001 86.9001 176.801 100.7 177.901 120C177.901 120 160.501 137.5 163.001 152.8C165.501 168.1 189.301 174.7 216.401 174.4C238.201 174.2 240.601 169.1 242.601 158.8C243.801 152.1 244.701 144.4 245.301 138.4C245.906 132.093 247.492 125.918 250.001 120.1C263.401 89.0001 252.601 77.8001 252.601 77.8001L216.401 80.7001L187.101 75.6001Z" fill="#FF78B9"/>
<path d="M195.101 59.4C186.601 65.7 188.401 75.3 200.401 88.5L205.801 93.9L240.701 88.2C251.901 74.3 249.701 65 245.601 59.2C251.301 49.8 251.701 43.3 251.601 37.5C251.501 27.7 242.601 12.3 220.201 12.5C208.001 12.6 197.201 17.4 193.301 32.9C191.901 38.3 191.601 47.1 195.101 59.4Z" fill="#FFE75C"/>
<path d="M238.301 25.2002C238.568 25.1987 238.833 25.2537 239.077 25.3614C239.322 25.4691 239.541 25.6273 239.72 25.8254C239.9 26.0236 240.035 26.2574 240.118 26.5116C240.201 26.7657 240.229 27.0344 240.201 27.3002L239.001 40.8002C238.646 43.828 237.222 46.6297 234.986 48.7012C232.749 50.7727 229.847 51.978 226.801 52.1002H224.101C220.917 52.1304 217.831 51 215.42 48.9203C213.009 46.8406 211.438 43.954 211.001 40.8002L210.501 36.3002C210.428 35.7701 210.164 35.2848 209.759 34.9351C209.354 34.5854 208.836 34.3952 208.301 34.4002C207.75 34.3979 207.219 34.6021 206.812 34.9723C206.405 35.3426 206.151 35.8521 206.101 36.4002L205.501 43.6002C205.279 45.9796 204.187 48.1936 202.434 49.8176C200.681 51.4416 198.39 52.3612 196.001 52.4002C194.568 52.4543 193.141 52.1967 191.818 51.6452C190.495 51.0937 189.307 50.2614 188.337 49.2058C187.367 48.1503 186.638 46.8967 186.2 45.5318C185.762 44.1668 185.626 42.723 185.801 41.3002L187.001 27.7002C187.072 27.1604 187.331 26.6632 187.734 26.2969C188.137 25.9307 188.657 25.7193 189.201 25.7002L238.301 25.2002Z" fill="black"/>
<path d="M239.601 25.7002L251.601 37.5002V39.9002L239.701 31.6002L239.601 25.7002Z" fill="black"/>
<path d="M252.601 77.7C246.972 72.383 240.344 68.2362 233.101 65.5C226.601 63.2 225.101 62.6 223.601 66.3C222.101 70 220.501 74.2 219.901 75.6C219.301 77 212.201 81.8 207.901 85.4C203.601 89 199.101 96.7 199.101 96.7L244.701 100.2L252.601 77.7Z" fill="#FF78B9"/>
<path d="M262.401 76.7002L268.301 82.9002C265.601 91.3002 263.901 101.8 262.901 113.5L239.601 115.2L252.601 77.8002L262.401 76.7002Z" fill="#FF78B9"/>
<path d="M187.101 75.6L182.801 74.8C182.141 74.7044 181.469 74.7532 180.83 74.9432C180.191 75.1331 179.601 75.4596 179.101 75.9001C174.206 80.3554 170.904 86.2912 169.701 92.8C168.401 100.4 168.801 101.2 177.601 105.9C183.501 109.1 189.601 95.1 192.901 85.6C193.284 84.5643 193.434 83.4567 193.339 82.3564C193.245 81.2561 192.909 80.1902 192.355 79.2349C191.8 78.2796 191.042 77.4585 190.134 76.8301C189.226 76.2018 188.19 75.7818 187.101 75.6Z" fill="#FF78B9"/>
<path d="M191.301 153.4C183.645 144.477 175.026 136.428 165.601 129.4L143.201 141.1L150.501 162.9C150.501 162.9 156.501 170.5 162.101 176.5C167.701 182.5 177.801 182.7 196.401 184.3C203.401 171.8 200.201 163.9 191.301 153.4Z" fill="#2835BD"/>
<path d="M154.801 162.5L156.801 152.8" stroke="black" stroke-width="2" stroke-linecap="round" stroke-linejoin="round"/>
<path d="M233.401 149.3C231.601 144.4 226.101 140.5 201.501 139.3L192.401 130.1L167.101 149.4C176.101 164.6 186.301 182.9 196.401 184.3C206.501 185.7 215.601 185 227.601 177.7C235.201 173 236.201 170.8 236.401 166.8C236.248 160.853 235.238 154.959 233.401 149.3Z" fill="#3442D9"/>
<path d="M260.601 150.1C255.001 171.8 229.001 176.9 209.101 181.5C191.101 185.6 189.901 191 187.201 200L173.601 196.4V182.4L191.501 178.7C207.501 172.1 218.801 173.6 235.801 165.5C252.801 157.4 255.001 151.4 257.101 140.3C258.401 133.8 259.401 126.4 257.801 121.3L263.501 122.1C265.001 128.9 263.701 138.5 260.601 150.1Z" fill="#8CD9FF"/>
<path d="M108.401 171.6C107.075 172.403 106.058 173.629 105.514 175.08C104.969 176.531 104.93 178.123 105.401 179.6C108.301 188.8 109.601 195.9 106.901 218.3C104.201 240.7 99.7008 253.1 97.6008 257.7C97.4718 257.973 97.4098 258.273 97.4188 258.575C97.4288 258.876 97.5108 259.171 97.6568 259.435C97.8038 259.699 98.0108 259.924 98.2618 260.092C98.5128 260.26 98.8008 260.366 99.1008 260.4C110.301 262.1 127.101 261.9 145.501 259.5C148.605 259.093 151.546 257.869 154.023 255.954C156.5 254.039 158.425 251.502 159.601 248.6C164.331 236.862 168.208 224.797 171.201 212.5C177.901 184.9 177.101 185.4 191.501 178.7C190.401 168.8 190.501 159.3 179.701 157.9C167.101 156.3 153.301 162.5 133.501 167.9C129.001 163.9 124.901 161.9 108.401 171.6Z" fill="#45AAF7"/>
<path d="M162.601 159.4C154.301 161.4 144.901 164.8 133.501 167.9C130.201 165 127.101 163.1 119.201 166.2C118.908 166.948 118.674 167.717 118.501 168.5C114.901 186.4 108.101 215.7 128.501 214.1C148.901 212.5 151.201 200.4 150.601 189.4C150.001 178.4 148.701 172.3 150.601 169.1C152.501 165.9 159.201 160.3 162.601 159.4Z" fill="#287CEB"/>
<path d="M180.901 184.7C179.501 173 178.601 167.4 175.401 165.2C172.201 163 171.101 163.7 166.901 164.6C162.701 165.5 157.401 167.1 150.601 169.1C137.901 172.8 122.101 177.5 116.101 177.1L114.101 176.8C115.501 175.3 124.101 172.2 129.801 170.1L133.801 168.6C133.895 168.577 133.983 168.535 134.06 168.477C134.137 168.418 134.201 168.344 134.248 168.26C134.295 168.175 134.324 168.082 134.333 167.985C134.342 167.889 134.331 167.792 134.301 167.7L133.501 167.9L132.801 167.3L129.201 168.6C115.901 173.5 112.101 175.2 112.401 177.1C112.701 179 114.201 178.6 116.001 178.7C122.201 179.1 137.501 174.6 151.101 170.6C157.801 168.6 163.601 166.9 167.201 166.2C170.801 165.5 173.101 165.5 174.501 166.5C175.901 167.5 178.101 174.5 179.401 186.3L180.901 184.7Z" fill="black"/>
<path d="M186.001 39.3L205.001 25.5L197.901 25.6L186.501 33.9L186.001 39.3Z" fill="#5865F2"/>
<path d="M190.601 51C192.238 51.9545 194.106 52.439 196.001 52.4C198.39 52.361 200.681 51.4414 202.434 49.8174C204.187 48.1934 205.279 45.9794 205.501 43.6L205.801 40L190.601 51Z" fill="#5865F2"/>
<path d="M238.301 25.2002H230.401L210.901 39.3002V40.8002C211.126 42.3466 211.634 43.8383 212.401 45.2002L239.501 25.7002C239.164 25.4108 238.744 25.2357 238.301 25.2002Z" fill="#5865F2"/>
<path d="M239.001 40.7998L239.601 34.2998L217.401 50.3999C219.451 51.5341 221.758 52.1197 224.101 52.0998H226.801C229.847 51.9777 232.749 50.7724 234.986 48.7008C237.222 46.6293 238.646 43.8276 239.001 40.7998Z" fill="#5865F2"/>
<path d="M204.501 53.6002C207.169 53.018 209.932 53.018 212.601 53.6002" stroke="black" stroke-width="2" stroke-linecap="round" stroke-linejoin="round"/>
<path d="M120.701 133C120.801 133.3 120.901 133.5 121.001 133.5C121.101 133.5 121.201 133.4 121.301 133.1" fill="black"/>
<path d="M137.701 128.4C126.901 132.6 111.801 141.4 98.8014 148.7C91.6014 152.7 89.4014 155.1 93.2014 162.4C97.0014 169.7 104.201 176.7 109.601 181.5C115.001 186.3 118.001 184.3 122.001 181.7L150.501 162.9L165.601 129.4C159.301 125 148.601 124.1 137.701 128.4Z" fill="#2835BD"/>
<path d="M107.201 168.1C111.801 169 111.801 169.5 117.501 165.8C123.201 162.1 151.901 144.8 154.801 142.9" stroke="#4150F2" stroke-width="2" stroke-miterlimit="10" stroke-linecap="round"/>
<path d="M179.401 117.8C174.901 114.5 171.801 114.3 147.601 112.3C123.401 110.3 112.101 107.8 109.301 112.2C106.501 116.6 109.001 127.6 111.801 135.9C114.601 144.2 116.201 146.9 120.101 147.2C124.001 147.5 160.401 148.7 167.101 149.4L170.401 155L201.501 139.3C201.501 139.3 183.801 121.1 179.401 117.8Z" fill="#3442D9"/>
<path d="M102.601 161.4C96.6011 156.5 94.201 155.6 94.901 158.9C95.601 162.2 99.401 167.1 103.501 171.5C107.601 175.9 112.301 180.4 113.901 180.1C115.501 179.8 113.601 176.8 111.101 172C108.966 167.959 106.081 164.362 102.601 161.4Z" fill="black"/>
<path d="M109.201 168.7L104.201 172.2L100.101 175.1C95.2008 178.7 97.2008 181.6 97.6008 185C98.0008 188.4 96.9008 190.9 94.6008 190.9C92.3008 190.9 88.9008 181.3 86.5008 176.7C84.1008 172.1 76.2008 168.4 72.1008 164.9C70.4008 163.4 70.0008 160.9 72.1008 160.1C71.2008 158.8 70.0008 155.5 73.0008 154.5C76.0008 153.5 80.5008 159 83.0008 160.7C85.5008 162.4 88.6008 164 90.9008 163C92.4818 162.296 94.0178 161.494 95.5008 160.6L98.9008 158.5L102.601 161.4C105.112 163.533 107.331 165.987 109.201 168.7Z" fill="#FF78B9"/>
<path d="M260.601 150.1C255.001 171.8 229.001 176.9 209.101 181.5C189.201 186.1 189.801 192.1 186.201 203C182.601 213.9 175.401 241.2 170.401 253.6L236.901 214.5L264.101 162.9L260.601 150.1Z" fill="#66BCFF"/>
<path d="M183.501 237.9C181.301 245.6 179.501 251.4 178.501 255.6C177.501 259.8 182.101 259.4 187.001 258C191.901 256.6 194.001 254.5 193.201 250.2C192.401 245.9 185.901 229.2 183.501 237.9Z" fill="white"/>
<path d="M102.601 161.4L98.901 158.5C98.001 158.4 97.501 158.4 97.101 158.7C96.701 159 96.801 159.2 96.901 159.7C99.201 159.3 104.901 163.4 105.101 171.5C106.401 172.1 107.101 172.5 107.601 172.2C108.101 171.9 108.801 170.5 109.201 168.7C107.331 165.987 105.112 163.533 102.601 161.4Z" fill="black"/>
<path d="M93.8008 186.5C92.8008 182.7 89.4008 174.9 86.5008 171.8C83.6008 168.7 79.0008 161.4 77.5008 159C76.0008 156.6 72.1008 153.6 71.2008 156.3C71.0058 157.635 71.3278 158.994 72.1008 160.1C70.0008 160.9 70.4008 163.4 72.1008 164.9C76.2008 168.4 83.9008 171.6 86.5008 176.7C89.1008 181.8 90.9008 189.2 93.7008 190.7L94.5008 190.9C95.0008 190.8 94.7008 189.4 93.8008 186.5Z" fill="#DE3A93"/>
<path d="M208.201 6.5001C206.934 10.0718 206.795 13.9465 207.802 17.6001C207.961 18.2428 208.335 18.8115 208.863 19.2118C209.39 19.612 210.039 19.8196 210.701 19.8001H216.802C217.481 19.8032 218.152 19.6623 218.773 19.3865C219.393 19.1106 219.948 18.7063 220.401 18.2001C224.101 14.3001 230.801 13.3001 236.001 15.5001L239.101 11.0001C239.433 10.5593 239.596 10.0137 239.559 9.4629C239.522 8.91213 239.289 8.39293 238.901 8.0001C235.869 5.13476 232.251 2.9622 228.297 1.63271C224.343 0.303222 220.148 -0.151461 216.001 0.300101C214.254 0.509967 212.6 1.20074 211.223 2.29545C209.846 3.39015 208.799 4.84577 208.201 6.5001Z" fill="#FF8C19"/>
<path d="M263.301 108.8C262.901 113.5 263.701 115.1 264.801 113.2C265.574 111.494 266.048 109.667 266.201 107.8L263.301 108.8Z" fill="black"/>
<path d="M251.301 78.1001C242.701 79.2001 237.901 80.7001 233.601 82.7001" stroke="black" stroke-width="2" stroke-linecap="round" stroke-linejoin="round"/>
<path d="M268.901 84.1001L272.601 87.8001" stroke="black" stroke-width="2" stroke-linecap="round" stroke-linejoin="round"/>
<path d="M247.001 119.6C247.001 119.6 242.501 122.9 239.601 125.3" stroke="black" stroke-width="2" stroke-linecap="round" stroke-linejoin="round"/>
<path d="M207.501 93.7998L206.701 105.6H201.401C201.711 101.727 202.313 97.8826 203.201 94.0998C203.399 93.4541 203.703 92.8459 204.101 92.2998C205.431 90.6346 206.978 89.1549 208.701 87.8999L217.901 80.9999C220.505 79.0801 222.487 76.4372 223.601 73.3999C224.901 69.9999 226.501 65.6998 227.201 64.7998" stroke="#F551A0" stroke-width="2" stroke-linecap="round" stroke-linejoin="round"/>
<path d="M263.201 77.5C259.001 88.1 254.401 106.1 257.901 114.7C258.252 115.51 258.688 116.281 259.201 117L261.201 116.8C260.444 116.015 259.834 115.101 259.401 114.1C256.201 106.4 260.201 89.8 264.401 78.8L263.201 77.5Z" fill="#F551A0"/>
<path d="M170.601 101.4C171.001 101.872 171.473 102.277 172.001 102.6C173.001 90.8999 177.801 80.9999 185.201 75.1999L183.201 74.8999C176.301 80.7999 171.701 90.2999 170.601 101.4Z" fill="#F551A0"/>
<path d="M250.901 118.9L239.801 120.2" stroke="black" stroke-width="2" stroke-linecap="round" stroke-linejoin="round"/>
<path d="M236.001 161.3C232.001 164 223.501 168.1 218.101 169.3C216.752 169.577 215.378 169.711 214.001 169.7C211.835 169.781 209.683 169.331 207.731 168.39C205.779 167.448 204.087 166.045 202.801 164.3L197.601 157C193.101 150.6 187.401 142.7 183.301 137C183.201 136.8 183.201 136.7 183.101 136.6C176.901 127.9 173.601 124.1 169.001 123.4C164.401 122.7 151.101 121.5 127.801 119.7C122.001 119.3 121.101 119.4 120.001 122C119.969 122.098 119.916 122.188 119.846 122.263C119.776 122.338 119.69 122.397 119.595 122.435C119.499 122.473 119.397 122.49 119.294 122.484C119.191 122.478 119.091 122.449 119.001 122.4C118.817 122.314 118.668 122.169 118.577 121.987C118.486 121.806 118.459 121.599 118.501 121.4C120.101 117.5 122.501 117.7 127.901 118.1C141.501 119.2 164.801 121 169.301 121.8C173.801 122.6 178.701 127.7 184.401 135.7C184.401 135.8 184.501 135.9 184.601 136C188.701 141.7 194.301 149.7 198.901 156L204.101 163.4C206.901 167.3 212.001 168.9 217.701 167.7C223.401 166.5 232.701 161.7 235.801 159.5C235.917 160.094 235.984 160.696 236.001 161.3Z" fill="#5865F2"/>
<path d="M112.401 113.9C109.501 116.6 111.001 121.9 113.001 129.2C115.001 136.5 117.501 143.1 118.801 142.9C120.101 142.7 120.801 140.1 121.101 136.3C121.401 132.5 121.301 125.7 119.801 120.6C118.301 115.5 114.601 111.8 112.401 113.9Z" fill="black"/>
<path d="M121.301 133.1L113.901 132.2C110.301 131.7 106.701 131.4 103.101 131.2C102.401 135.5 100.901 141 98.8011 143.2C96.7011 145.4 93.0012 145.3 92.6012 140.3C92.2012 135.3 92.5011 128.2 89.2011 113.4C88.0011 107.9 85.8012 104.6 85.0012 100.4C84.2012 96.1999 86.6011 95.4999 88.8011 95.8999C88.3011 93.0999 88.5012 89.4999 92.0012 88.9999C95.5012 88.4999 96.9012 91.4999 96.9012 95.3999C97.4202 94.6813 98.1682 94.161 99.0232 93.9247C99.8772 93.6884 100.786 93.7502 101.601 94.0999C104.001 94.9999 104.501 97.9999 104.201 102.8C103.901 107.6 103.801 112.7 105.801 114.4C107.801 116.1 108.301 115.5 111.101 115.9L117.901 116.5C118.712 117.777 119.351 119.156 119.801 120.6C120.835 124.685 121.339 128.886 121.301 133.1Z" fill="#FF78B9"/>
<path d="M121.301 133.1C121.339 128.886 120.835 124.685 119.801 120.6C119.351 119.156 118.712 117.777 117.901 116.5H117.001C119.501 119.7 121.001 128.1 117.001 132.6C117.564 133.077 118.207 133.449 118.901 133.7C119.746 133.781 120.593 133.57 121.301 133.1Z" fill="black"/>
<path d="M101.701 99.9998C102.101 95.2999 98.8012 93.2999 96.9012 95.3999C96.9012 91.4999 95.6012 88.4999 92.0012 88.9999C88.4012 89.4999 88.3011 93.0999 88.8011 95.8999C86.6011 95.4999 84.2012 96.2999 85.0012 100.4C85.8012 104.5 88.0011 107.9 89.2011 113.4C92.5011 128.2 92.1012 134.4 92.6012 140.3C92.6082 141.489 92.9931 142.645 93.7011 143.6C96.0011 146 97.0012 143.1 96.9012 138.7C96.8462 131.814 97.2472 124.933 98.1012 118.1C99.1012 110.1 101.401 104.7 101.701 99.9998Z" fill="#DE3A93"/>
<path d="M92.4014 89.0002C95.5014 88.9002 95.6014 92.8002 95.5014 97.1002L96.9014 95.4002C96.9014 91.7002 95.7014 88.7002 92.4014 89.0002Z" fill="#FF78B9"/>
<path d="M172.701 138.2C171.129 142.074 169.257 145.819 167.101 149.4C171.701 147.4 173.601 146.4 173.601 146.4" stroke="black" stroke-width="2" stroke-linecap="round" stroke-linejoin="round"/>
<path d="M202.401 140.2L213.001 151C221.601 152.1 223.601 153.9 225.901 156.8" stroke="black" stroke-width="2" stroke-linecap="round" stroke-linejoin="round"/>
<path d="M213.001 151L222.701 151.3" stroke="black" stroke-width="2" stroke-linecap="round" stroke-linejoin="round"/>
<path d="M186.601 252.1C185.301 255.4 183.101 257.6 181.701 257.1C180.301 256.6 180.301 255 181.701 251.9C182.304 250.642 182.806 249.338 183.201 248C184.001 245.1 185.501 244.6 186.601 245.1C187.701 245.6 188.001 248.7 186.601 252.1Z" fill="black"/>
<path d="M108.001 207.6C107.901 209.3 107.701 211.2 107.501 213.2L129.901 215.7L106.301 223.1C105.801 226.5 105.301 229.6 104.801 232.5L120.401 234.1C115.101 236 109.301 238 103.101 240.4C102.301 243.933 101.501 246.933 100.701 249.4L108.001 249.6L99.8014 251.9C99.2004 253.881 98.4654 255.819 97.6014 257.7C97.4994 257.957 97.4324 258.226 97.4014 258.5C106.301 255.7 115.301 253.4 124.001 251.5C132.883 253.103 141.639 255.342 150.201 258.2C152.365 257.29 154.309 255.926 155.901 254.2C152.501 253 147.501 251.4 141.401 249.7L137.901 248.8C146.201 247.4 153.901 246.2 160.901 245.3C162.001 242.5 163.201 239.2 164.401 235.6C157.901 234.1 151.201 232.9 144.701 231.8C154.101 228.9 161.501 226.8 167.701 225.3C168.701 221.9 169.701 218.3 170.701 214.5L157.201 213.1L172.101 208.5L173.701 202.2L143.201 211.5L108.001 207.6ZM158.301 240C148.101 241.4 136.201 243.2 123.801 245.9C119.134 245.1 114.234 244.5 109.101 244.1C118.001 240.8 125.801 238 132.801 235.7C140.901 236.8 149.701 238.2 158.301 240ZM166.901 219.7C158.401 221.8 147.401 224.9 132.301 230C124.201 228.9 116.901 228.1 111.001 227.5L143.801 217.2L166.901 219.7Z" fill="#3F4EEB"/>
<path d="M108.401 199.7C108.301 201.6 108.301 203.7 108.101 206.1C133.701 205.3 163.001 202.2 174.001 200.9C174.601 198.3 175.201 196.1 175.801 194.2C167.901 195.2 136.001 198.9 108.401 199.7Z" fill="#3F4EEB"/>
<path d="M151.701 252.8L155.901 254.2C154.309 255.926 152.365 257.29 150.201 258.2L146.201 256.9C148.301 255.934 150.175 254.537 151.701 252.8Z" fill="black"/>
<path d="M161.101 234.9L164.401 235.6C163.201 239.2 162.001 242.5 160.901 245.3L156.501 245.9C158.368 242.382 159.908 238.7 161.101 234.9Z" fill="black"/>
<path d="M166.801 214.1L170.701 214.5C169.701 218.3 168.701 221.9 167.701 225.3L163.701 226.3C164.301 224.3 164.801 222.2 165.301 220.1C165.401 219.9 165.401 219.7 165.501 219.5C165.901 217.7 166.401 215.9 166.801 214.1Z" fill="black"/>
<path d="M169.401 203.5L173.701 202.2L172.101 208.5L167.801 209.8C168.301 207.7 168.901 205.6 169.401 203.5Z" fill="black"/>
<path d="M175.801 194.2C175.201 196.1 174.601 198.3 174.001 200.9L169.901 201.3L171.701 194.7L175.801 194.2Z" fill="black"/>
<path d="M99.8014 251.9L104.801 250.5C104.101 252.7 103.401 254.8 102.601 256.9L97.4014 258.5C97.4324 258.226 97.4994 257.957 97.6014 257.7C98.4654 255.819 99.2004 253.881 99.8014 251.9Z" fill="black"/>
<path d="M103.101 240.4L107.601 238.7C106.901 242.5 106.101 246 105.101 249.5H100.701C101.501 246.967 102.301 243.933 103.101 240.4Z" fill="black"/>
<path d="M106.301 223.1L110.001 221.9C109.601 225.8 109.101 229.4 108.601 232.9L104.801 232.5C105.301 229.6 105.801 226.5 106.301 223.1Z" fill="black"/>
<path d="M108.001 207.6L111.401 208L110.801 213.5L107.501 213.2C107.701 211.2 107.901 209.3 108.001 207.6Z" fill="black"/>
<path d="M112.201 199.6L111.601 206H108.101C108.301 203.6 108.301 201.5 108.401 199.6H112.201Z" fill="black"/>
<path d="M209.601 225L209.801 233.5C209.807 233.941 209.93 234.372 210.156 234.75C210.383 235.128 210.706 235.44 211.091 235.653C211.477 235.866 211.913 235.974 212.353 235.964C212.794 235.955 213.224 235.829 213.601 235.6C214.052 235.305 214.4 234.877 214.597 234.375C214.794 233.874 214.83 233.323 214.701 232.8L211.801 222.8L209.601 225Z" fill="white"/>
<path d="M195.001 199.4C203.001 201.9 204.601 210.4 206.301 224.8C206.335 225.154 206.464 225.493 206.673 225.781C206.882 226.07 207.164 226.297 207.49 226.439C207.816 226.582 208.174 226.635 208.528 226.593C208.881 226.551 209.217 226.415 209.501 226.2L212.301 224.1C213.034 223.576 213.609 222.86 213.962 222.031C214.315 221.202 214.432 220.292 214.301 219.4C214.001 217.6 213.501 214.8 213.001 211C211.801 203.6 206.901 194.6 197.501 193.5C196.991 193.449 196.478 193.556 196.03 193.806C195.583 194.057 195.224 194.439 195.001 194.9C194.523 196.039 194.285 197.265 194.301 198.5C194.312 198.704 194.385 198.899 194.51 199.06C194.635 199.22 194.806 199.339 195.001 199.4Z" fill="#3F4EEB"/>
</g>
<defs>
<clipPath id="clip0_1_222">
<rect width="689" height="352" fill="white" transform="translate(-310)"/>
</clipPath>
</defs>
</svg>
