<svg width="1440" height="626" viewBox="0 0 1440 626" fill="none" xmlns="http://www.w3.org/2000/svg">
<g clip-path="url(#clip0_1_6)">
<mask id="mask0_1_6" style="mask-type:luminance" maskUnits="userSpaceOnUse" x="-560" y="0" width="2560" height="626">
<path d="M2000 0H-560V626H2000V0Z" fill="white"/>
</mask>
<g mask="url(#mask0_1_6)">
<path d="M2000 742.024C1721.4 521.424 1592.7 442.024 1362 582.924C1100.1 414.924 1001.1 471.424 720 646.624C579.5 509.324 525.6 452.324 460.5 538.224C300.2 351.524 212.1 290.424 77.8 453.024C63.243 470.609 43.935 483.636 22.18 490.551C0.424011 497.466 -22.862 497.977 -44.9 492.024C-247.1 437.124 -441.4 667.024 -560 742.024H2000Z" fill="#5865F2"/>
<path d="M255.501 192.3C277.601 181.1 293.201 189.8 293.201 189.8C304.101 186.4 313.801 188.8 318.701 192.6C321.801 195.1 314.901 194.6 299.301 194.6H256.001C255.683 194.6 255.377 194.474 255.152 194.249C254.927 194.024 254.801 193.718 254.801 193.4C254.799 193.169 254.864 192.942 254.988 192.747C255.113 192.552 255.29 192.396 255.501 192.3Z" fill="#5865F2"/>
<path d="M1605.6 283.5C1608.11 283.527 1610.6 282.998 1612.88 281.951C1615.16 280.903 1617.18 279.363 1618.8 277.441C1620.41 275.52 1621.58 273.264 1622.22 270.836C1622.86 268.408 1622.96 265.869 1622.5 263.4C1617.71 237.556 1604.63 213.974 1585.26 196.214C1565.88 178.454 1541.25 167.481 1515.09 164.952C1488.92 162.422 1462.65 168.474 1440.23 182.193C1417.81 195.912 1400.46 216.553 1390.8 241C1381.86 239.071 1372.74 238.098 1363.6 238.1C1346.03 238.071 1328.64 241.712 1312.56 248.789C1296.48 255.866 1282.05 266.224 1270.2 279.2C1269.88 279.573 1269.67 280.029 1269.6 280.516C1269.52 281.003 1269.59 281.501 1269.79 281.952C1269.99 282.402 1270.31 282.787 1270.72 283.061C1271.13 283.335 1271.61 283.487 1272.1 283.5H1605.6Z" fill="#5865F2"/>
<path d="M1160.6 625.4H1158.6C1159.4 602.8 1155.2 588.1 1145.7 580.6C1136.2 573.1 1120.3 572.6 1098 579.5C1097.73 579.569 1097.44 579.533 1097.2 579.4C1096.95 579.237 1096.77 578.987 1096.7 578.7C1096.08 574.68 1094.43 570.889 1091.9 567.698C1089.38 564.508 1086.07 562.028 1082.3 560.5C1072.7 556.6 1060.8 558.8 1050.6 566.3C1025.8 584.4 1028.5 616.8 1028.5 617.1C1028.5 617.306 1028.45 617.509 1028.34 617.686C1028.24 617.863 1028.08 618.006 1027.9 618.1C1027.72 618.196 1027.52 618.228 1027.32 618.192C1027.12 618.155 1026.93 618.053 1026.8 617.9C1013.9 606.4 1004.9 601.9 997.6 603.2C990.3 604.5 983.7 612.3 976.2 625.4H973.9C982 611.2 988.6 602.7 997.2 601.2C1005.8 599.7 1013.9 604.1 1026.4 614.9C1026.3 606.9 1027.7 580.6 1049.4 564.7C1060.2 556.8 1072.8 554.5 1083 558.7C1086.93 560.233 1090.41 562.731 1093.12 565.965C1095.83 569.198 1097.68 573.062 1098.5 577.2C1120.9 570.5 1136.7 571.1 1146.9 579.1C1157.1 587.1 1161.4 602.1 1160.6 625.4Z" fill="#808AFF"/>
<path d="M36.4995 275.9C34.9305 274.918 33.5985 273.602 32.5955 272.047C31.5935 270.491 30.9455 268.734 30.6995 266.9L29.6995 260.5C29.6755 260.359 29.6015 260.231 29.4915 260.139C29.3815 260.047 29.2425 259.998 29.0995 260C28.9555 259.998 28.8165 260.047 28.7065 260.139C28.5965 260.231 28.5225 260.359 28.4995 260.5L27.4995 266.9C27.2335 268.728 26.5776 270.478 25.5766 272.03C24.5766 273.583 23.2535 274.903 21.6995 275.9L20.8996 276.4C20.8036 276.442 20.7225 276.512 20.6685 276.602C20.6145 276.692 20.5905 276.796 20.5995 276.9C20.5905 277.004 20.6145 277.109 20.6685 277.198C20.7225 277.288 20.8036 277.359 20.8996 277.4L21.6995 277.9C23.2485 278.928 24.5646 280.268 25.5636 281.836C26.5626 283.403 27.2215 285.162 27.4995 287L28.4995 293.3C28.5225 293.441 28.5965 293.569 28.7065 293.661C28.8165 293.753 28.9555 293.802 29.0995 293.8C29.2425 293.802 29.3815 293.753 29.4915 293.661C29.6015 293.569 29.6755 293.441 29.6995 293.3L30.6995 287C30.9575 285.157 31.6096 283.39 32.6106 281.82C33.6106 280.25 34.9375 278.913 36.4995 277.9L37.2995 277.4C37.3955 277.359 37.4756 277.288 37.5296 277.198C37.5836 277.109 37.6075 277.004 37.5995 276.9C37.6075 276.796 37.5836 276.692 37.5296 276.602C37.4756 276.512 37.3955 276.442 37.2995 276.4L36.4995 275.9Z" fill="#91FFAD"/>
<path d="M1132.1 177.1C1129.45 175.385 1127.2 173.124 1125.49 170.468C1123.78 167.813 1122.66 164.823 1122.2 161.7L1120.6 150.9C1120.54 150.653 1120.4 150.432 1120.2 150.27C1120 150.108 1119.75 150.013 1119.5 150C1119.24 149.996 1118.99 150.084 1118.78 150.249C1118.58 150.413 1118.45 150.644 1118.4 150.9L1116.8 161.7C1116.32 164.83 1115.18 167.822 1113.46 170.477C1111.73 173.132 1109.46 175.39 1106.8 177.1L1105.4 178C1105.25 178.104 1105.13 178.238 1105.05 178.394C1104.96 178.549 1104.91 178.722 1104.9 178.9C1104.9 179.08 1104.95 179.255 1105.04 179.412C1105.12 179.569 1105.25 179.702 1105.4 179.8L1106.8 180.7C1109.47 182.431 1111.74 184.707 1113.46 187.378C1115.18 190.05 1116.32 193.057 1116.8 196.2L1118.4 207C1118.45 207.256 1118.58 207.487 1118.78 207.652C1118.99 207.816 1119.24 207.904 1119.5 207.9C1119.75 207.887 1120 207.792 1120.2 207.631C1120.4 207.469 1120.54 207.248 1120.6 207L1122.2 196.2C1122.66 193.063 1123.78 190.059 1125.49 187.387C1127.19 184.715 1129.45 182.436 1132.1 180.7L1133.6 179.8C1133.74 179.697 1133.85 179.561 1133.92 179.403C1133.99 179.245 1134.02 179.072 1134 178.9C1134.01 178.729 1133.98 178.559 1133.91 178.403C1133.84 178.247 1133.73 178.109 1133.6 178L1132.1 177.1Z" fill="#3F99F2"/>
<path d="M340.9 413.7C340.087 413.183 339.397 412.494 338.879 411.682C338.361 410.871 338.026 409.955 337.9 409L337.4 405.8C337.4 405.721 337.368 405.644 337.312 405.588C337.256 405.532 337.179 405.5 337.1 405.5C337.02 405.5 336.944 405.532 336.888 405.588C336.831 405.644 336.8 405.721 336.8 405.8L336.3 409C336.173 409.955 335.839 410.871 335.32 411.682C334.802 412.494 334.112 413.183 333.3 413.7L332.8 414C332.7 414 332.7 414.2 332.7 414.3C332.695 414.354 332.702 414.409 332.719 414.46C332.736 414.512 332.763 414.56 332.8 414.6L333.3 414.8C334.091 415.341 334.765 416.036 335.28 416.843C335.796 417.651 336.143 418.555 336.3 419.5L336.8 422.8C336.8 422.88 336.831 422.956 336.888 423.012C336.944 423.068 337.02 423.1 337.1 423.1C337.179 423.1 337.256 423.068 337.312 423.012C337.368 422.956 337.4 422.88 337.4 422.8L337.9 419.5C338.057 418.555 338.403 417.651 338.919 416.843C339.435 416.036 340.108 415.341 340.9 414.8L341.4 414.6C341.436 414.56 341.463 414.512 341.481 414.46C341.498 414.409 341.504 414.354 341.5 414.3C341.5 414.2 341.5 414 341.4 414L340.9 413.7Z" fill="#FF78B9"/>
<path d="M383.1 542C382.685 541.753 382.328 541.419 382.052 541.023C381.776 540.626 381.588 540.175 381.5 539.7L381.3 538H381L380.7 539.7C380.629 540.169 380.459 540.617 380.2 541.014C379.941 541.411 379.6 541.747 379.2 542L379 542.2C378.973 542.2 378.948 542.211 378.929 542.23C378.91 542.248 378.9 542.274 378.9 542.3C378.9 542.327 378.91 542.352 378.929 542.371C378.948 542.39 378.973 542.4 379 542.4L379.2 542.6C379.6 542.853 379.941 543.19 380.2 543.587C380.459 543.984 380.629 544.432 380.7 544.9L381 546.6H381.3L381.5 544.9C381.588 544.425 381.776 543.974 382.052 543.578C382.328 543.181 382.685 542.848 383.1 542.6L383.3 542.4L383.1 542Z" fill="#FFC619"/>
<path d="M805.8 532.6C804.9 531.993 804.14 531.21 803.56 530.299C802.97 529.388 802.58 528.368 802.4 527.3L801.9 523.7C801.9 523.5 801.7 523.4 801.5 523.4C801.46 523.4 801.42 523.408 801.38 523.423C801.35 523.438 801.32 523.46 801.29 523.488C801.26 523.516 801.24 523.549 801.22 523.585C801.21 523.622 801.2 523.661 801.2 523.7L800.6 527.3C800.46 528.369 800.1 529.395 799.53 530.31C798.96 531.224 798.2 532.006 797.3 532.6L796.8 532.9C796.7 532.9 796.6 533 796.6 533.2C796.6 533.3 796.7 533.4 796.8 533.5L797.3 533.8C798.18 534.389 798.93 535.155 799.5 536.051C800.07 536.946 800.44 537.951 800.6 539L801.2 542.6C801.2 542.68 801.23 542.756 801.29 542.812C801.34 542.869 801.42 542.9 801.5 542.9C801.7 542.9 801.9 542.8 801.9 542.6L802.4 539C802.59 537.95 802.99 536.95 803.57 536.057C804.16 535.164 804.91 534.396 805.8 533.8L806.3 533.5C806.34 533.46 806.36 533.412 806.38 533.36C806.4 533.309 806.4 533.254 806.4 533.2C806.4 533 806.4 532.9 806.3 532.9L805.8 532.6Z" fill="#91FFAD"/>
</g>
</g>
<defs>
<clipPath id="clip0_1_6">
<rect width="2560" height="626" fill="white" transform="translate(-560)"/>
</clipPath>
</defs>
</svg>
