<svg width="24" height="25" viewBox="0 0 24 25" fill="none" xmlns="http://www.w3.org/2000/svg">
<path d="M12 2.1123C6.486 2.1123 2 6.5993 2 12.1123C2 17.6273 6.486 22.1123 12 22.1123C17.514 22.1123 22 17.6273 22 12.1123C22 6.5993 17.514 2.1123 12 2.1123ZM12 18.3623C11.31 18.3623 10.75 17.8033 10.75 17.1123C10.75 16.4223 11.31 15.8623 12 15.8623C12.69 15.8623 13.25 16.4223 13.25 17.1123C13.25 17.8033 12.69 18.3623 12 18.3623ZM13 13.9873V15.1123H11V12.1123H12C13.104 12.1123 14 11.2153 14 10.1123C14 9.0083 13.104 8.1123 12 8.1123C10.896 8.1123 10 9.0083 10 10.1123H8C8 7.9073 9.795 6.1123 12 6.1123C14.205 6.1123 16 7.9073 16 10.1123C16 11.9733 14.723 13.5413 13 13.9873Z" fill="#B5BAC1"/>
</svg>
